HIERARCHY
ROOT Hips
{
    OFFSET 0.000000 0.000000 0.000000
    CHANNELS 6 Xposition Yposition Zposition Zrotation Xrotation Yrotation
    JOINT Spine
    {
        OFFSET -0.000000 14.517291 0.000000
        CHANNELS 3 Zrotation Xrotation Yrotation
        JOINT Spine1
        {
            OFFSET -0.000000 37.558300 0.000000
            CHANNELS 3 Zrotation Xrotation Yrotation
            JOINT Neck
            {
                OFFSET -0.000000 37.404057 3.400369
                CHANNELS 3 Zrotation Xrotation Yrotation
                JOINT Head
                {
                    OFFSET -0.000000 24.785618 -3.540803
                    CHANNELS 3 Zrotation Xrotation Yrotation
                    End Site
                    {
                        OFFSET -0.000000 35.408028 0.000000
                    }
                }
            }
            JOINT LeftShoulder
            {
                OFFSET 6.992933 33.973492 -0.192664
                CHANNELS 3 Zrotation Xrotation Yrotation
                JOINT LeftArm
                {
                    OFFSET 21.527611 0.000000 0.000000
                    CHANNELS 3 Zrotation Xrotation Yrotation
                    JOINT LeftForeArm
                    {
                        OFFSET 56.353916 0.000000 0.000000
                        CHANNELS 3 Zrotation Xrotation Yrotation
                        JOINT LeftHand
                        {
                            OFFSET 47.774071 0.000000 0.000000
                            CHANNELS 3 Zrotation Xrotation Yrotation
                            End Site
                            {
                                OFFSET 26.556021 0.000000 0.000000
                            }
                        }
                    }
                }
            }
            JOINT RightShoulder
            {
                OFFSET -7.065357 33.973492 -0.192664
                CHANNELS 3 Zrotation Xrotation Yrotation
                JOINT RightArm
                {
                    OFFSET -21.527611 0.000000 0.000000
                    CHANNELS 3 Zrotation Xrotation Yrotation
                    JOINT RightForeArm
                    {
                        OFFSET -56.353916 0.000000 0.000000
                        CHANNELS 3 Zrotation Xrotation Yrotation
                        JOINT RightHand
                        {
                            OFFSET -47.774071 0.000000 0.000000
                            CHANNELS 3 Zrotation Xrotation Yrotation
                            End Site
                            {
                                OFFSET -26.556021 0.000000 0.000000
                            }
                        }
                    }
                }
            }
        }
    }
    JOINT LeftUpLeg
    {
        OFFSET 17.704014 0.000000 0.000000
        CHANNELS 3 Zrotation Xrotation Yrotation
        JOINT LeftLeg
        {
            OFFSET -0.000000 -81.181816 0.000000
            CHANNELS 3 Zrotation Xrotation Yrotation
            JOINT LeftFoot
            {
                OFFSET -0.000000 -62.821102 0.000000
                CHANNELS 3 Zrotation Xrotation Yrotation
                JOINT LeftToeBase
                {
                    OFFSET -0.000000 -11.507608 26.556021
                    CHANNELS 3 Zrotation Xrotation Yrotation
                    End Site
                    {
                        OFFSET -0.000000 0.000000 7.081605
                    }
                }
            }
        }
    }
    JOINT RightUpLeg
    {
        OFFSET -17.704014 0.000000 0.000000
        CHANNELS 3 Zrotation Xrotation Yrotation
        JOINT RightLeg
        {
            OFFSET -0.000000 -81.181816 0.000000
            CHANNELS 3 Zrotation Xrotation Yrotation
            JOINT RightFoot
            {
                OFFSET -0.000000 -62.821102 0.000000
                CHANNELS 3 Zrotation Xrotation Yrotation
                JOINT RightToeBase
                {
                    OFFSET -0.000000 -11.507608 26.556021
                    CHANNELS 3 Zrotation Xrotation Yrotation
                    End Site
                    {
                        OFFSET -0.000000 0.000000 7.081605
                    }
                }
            }
        }
    }
}
MOTION
Frames:    9
Frame Time:    0.008333
26.077587    156.363983    -34.870808    1.070145    -0.958533    -44.464615    1.512179    -1.271668    1.430616    1.827763    1.191763    0.450795    15.557500    -2.721797    14.971816    -8.674423    10.048004    12.427076    9.550969    1.223387    -19.337387    -11.040600    -17.463797    -44.217793    11.663018    -38.561745    -23.229982    -27.754820    -27.024332    -43.603222    -4.879110    2.085104    1.042232    47.193424    -5.342751    85.332428    -13.888831    -50.765305    106.219040    23.742359    -31.194416    34.480618    16.857714    -19.153036    3.967617    -11.728408    18.345570    -3.678989    -8.011620    0.154907    38.107372    0.000000    0.000000    0.000000    -15.945450    2.216478    -6.579772    6.531244    26.125767    -2.477268    5.475271    -20.954557    -16.903429    0.000000    0.000000    0.000000    
26.085621    156.364197    -34.876518    1.072559    -0.964817    -44.462273    1.514275    -1.269952    1.430402    1.827835    1.191517    0.450723    15.570555    -2.728807    14.967113    -8.684502    10.062304    12.419459    9.555028    1.216892    -19.337057    -11.024786    -17.428488    -44.211285    11.691961    -38.590462    -23.214277    -27.774429    -27.044777    -43.606621    -4.878473    2.108556    1.037885    47.164791    -5.294511    85.334343    -13.901512    -50.763397    106.199837    23.732372    -31.192045    34.446388    16.847755    -19.150555    3.969447    -11.720490    18.337307    -3.678497    -8.009237    0.166346    38.090858    0.000000    0.000000    0.000000    -15.950234    2.215899    -6.570592    6.533643    26.125576    -2.488845    5.480237    -20.958740    -16.912306    0.000000    0.000000    0.000000    
26.092684    156.363922    -34.882038    1.072838    -0.966910    -44.458088    1.514419    -1.267050    1.425408    1.835183    1.184328    0.449157    15.562306    -2.726409    14.962323    -8.664307    10.057964    12.416971    9.557189    1.213715    -19.331795    -11.017360    -17.393723    -44.213577    11.729096    -38.606850    -23.192163    -27.771591    -27.063240    -43.593319    -4.873784    2.129942    1.039883    47.148483    -5.249726    85.321320    -13.883431    -50.728542    106.193375    23.701654    -31.179245    34.434399    16.844168    -19.147335    3.954042    -11.724789    18.321213    -3.681240    -8.012572    0.172621    38.112862    0.000000    0.000000    0.000000    -15.953507    2.212475    -6.552594    6.541430    26.132553    -2.472165    5.468231    -20.967873    -16.947691    0.000000    0.000000    0.000000    
26.101982    156.365601    -34.885456    1.074571    -0.974905    -44.456184    1.519732    -1.261243    1.428383    1.830556    1.181633    0.450217    15.573847    -2.740759    14.959011    -8.675508    10.077084    12.410353    9.558667    1.206666    -19.333588    -11.021143    -17.389830    -44.215656    11.729872    -38.606689    -23.187687    -27.759586    -27.066101    -43.600529    -4.879056    2.152943    1.029147    47.114223    -5.180891    85.320068    -13.893921    -50.730370    106.152260    23.708225    -31.178802    34.439518    16.828140    -19.142460    3.966003    -11.704688    18.317150    -3.701226    -8.027574    0.173826    38.114502    0.000000    0.000000    0.000000    -15.962531    2.207999    -6.542246    6.547543    26.143883    -2.464301    5.458835    -20.960493    -16.967497    0.000000    0.000000    0.000000    
26.106552    156.365829    -34.893055    1.072471    -0.979341    -44.452232    1.522462    -1.256456    1.423492    1.835765    1.180862    0.448610    15.555057    -2.734594    14.953475    -8.653035    10.062461    12.408797    9.554587    1.201918    -19.323488    -11.007678    -17.358562    -44.216633    11.756904    -38.634483    -23.175201    -27.772684    -27.088150    -43.603550    -4.882390    2.171546    1.032938    47.075554    -5.114643    85.310066    -13.864637    -50.700569    106.134224    23.642672    -31.210855    34.369034    16.825220    -19.138649    3.959567    -11.703774    18.305880    -3.699130    -8.017869    0.194538    38.102566    0.000000    0.000000    0.000000    -15.963304    2.206817    -6.519661    6.554373    26.149939    -2.490449    5.470753    -20.962803    -16.958029    0.000000    0.000000    0.000000    
26.113754    156.367310    -34.899475    1.078607    -0.980468    -44.450432    1.523291    -1.256267    1.425231    1.836537    1.172825    0.449219    15.562885    -2.739598    14.943598    -8.659592    10.070585    12.396685    9.558503    1.204506    -19.324976    -11.015209    -17.364052    -44.217995    11.745014    -38.647182    -23.186337    -27.765879    -27.105297    -43.607609    -4.887270    2.192302    1.024224    47.047501    -5.031083    85.302177    -13.823864    -50.650547    106.122696    23.574383    -31.225424    34.310776    16.817352    -19.138372    3.966125    -11.696880    18.292849    -3.707907    -8.034002    0.197469    38.105579    0.000000    0.000000    0.000000    -15.971470    2.196908    -6.504898    6.568667    26.153646    -2.489993    5.454017    -20.961344    -16.990173    0.000000    0.000000    0.000000    
26.118343    156.369156    -34.904446    1.073980    -0.986605    -44.442402    1.524784    -1.247719    1.426480    1.846502    1.168568    0.449780    15.556123    -2.732345    14.936415    -8.658060    10.056374    12.390347    9.556468    1.206146    -19.334759    -11.016853    -17.358669    -44.213192    11.759323    -38.655495    -23.185875    -27.784687    -27.105001    -43.607552    -4.900032    2.216254    1.009027    46.990726    -4.935821    85.291176    -13.761786    -50.625122    106.129799    23.545343    -31.283041    34.247101    16.811432    -19.131208    3.954498    -11.692708    18.279617    -3.705974    -8.038056    0.206540    38.107807    0.000000    0.000000    0.000000    -15.971466    2.200655    -6.491375    6.578384    26.159826    -2.526444    5.467565    -20.962097    -16.973671    0.000000    0.000000    0.000000    
26.123465    156.368881    -34.909924    1.074554    -0.987019    -44.434841    1.529717    -1.246548    1.426212    1.844538    1.165880    0.449695    15.588650    -2.749037    14.942885    -8.690939    10.085183    12.389558    9.573125    1.214967    -19.331356    -11.026248    -17.358215    -44.224556    11.776055    -38.663784    -23.185492    -27.786392    -27.107777    -43.619099    -4.898489    2.231116    0.993254    46.879971    -4.821252    85.270103    -13.726738    -50.631744    106.108994    23.462051    -31.372978    34.192535    16.806028    -19.134756    3.964469    -11.684925    18.278030    -3.700786    -8.032049    0.218389    38.088207    0.000000    0.000000    0.000000    -15.971668    2.199037    -6.503109    6.572707    26.162909    -2.538475    5.479231    -20.964155    -16.958748    0.000000    0.000000    0.000000    
26.127178    156.370636    -34.914532    1.076015    -0.986477    -44.424843    1.544616    -1.249792    1.421417    1.827923    1.163677    0.448218    15.593122    -2.756321    14.938004    -8.681635    10.095586    12.383962    9.579651    1.217115    -19.322504    -11.039474    -17.384197    -44.236851    11.744969    -38.648079    -23.197903    -27.796864    -27.086872    -43.632927    -4.903504    2.258331    0.986908    46.826817    -4.706511    85.253525    -13.631795    -50.571953    106.144699    23.335646    -31.448046    34.095726    16.802935    -19.134161    3.960232    -11.683403    18.260336    -3.721028    -8.033229    0.234423    38.100071    0.000000    0.000000    0.000000    -15.972061    2.203477    -6.507407    6.578924    26.153646    -2.539975    5.475172    -20.958759    -16.964140    0.000000    0.000000    0.000000    
